<svg width="106" height="50" viewBox="0 0 106 50" fill="none" xmlns="http://www.w3.org/2000/svg">
<g clip-path="url(#clip0_12002_26024)">
<path d="M34.6334 26.7926L38.4236 20.1963H45.7629V21.3069L33.9299 42.4632L30.4005 49.0634H22.8359V47.9489L34.6334 26.7926Z" fill="#3071F1"/>
<path d="M27.1836 20.1963H38.8427C40.6529 20.1963 42.1191 21.6626 42.1191 23.4727C42.1191 25.2828 40.6529 26.7491 38.8427 26.7491H27.1836C25.3735 26.7491 23.9072 25.2828 23.9072 23.4727C23.9072 21.6626 25.3735 20.1963 27.1836 20.1963Z" fill="#3071F1"/>
<path d="M30.8311 42.5103H42.4902C44.3003 42.5103 45.7666 43.9765 45.7666 45.7867C45.7666 47.5968 44.3003 49.0631 42.4902 49.0631H30.8311C29.021 49.0631 27.5547 47.5968 27.5547 45.7867C27.5547 43.9765 29.021 42.5103 30.8311 42.5103Z" fill="#3071F1"/>
<path d="M54.4621 20.2155H54.4581C52.4129 20.2155 50.7549 21.8735 50.7549 23.9187V45.3794C50.7549 47.4246 52.4129 49.0826 54.4581 49.0826H54.4621C56.5073 49.0826 58.1653 47.4246 58.1653 45.3794V23.9187C58.1653 21.8735 56.5073 20.2155 54.4621 20.2155Z" fill="#D748BF"/>
<path d="M54.8335 42.5295L54.462 49.0823H62.8328C62.8328 49.0823 74.7211 48.6831 75.7408 35.1902C76.0333 21.6972 63.8169 20.3021 63.1213 20.2152C62.4257 20.1282 54.458 20.2152 54.458 20.2152L54.6635 26.768H62.0542C62.0542 26.768 68.0577 26.9893 68.5201 33.8188C68.9825 40.6482 63.6825 42.1066 63.6825 42.1066C63.6825 42.1066 62.9039 42.5295 59.5248 42.5295H54.8335Z" fill="#D748BF"/>
<path d="M20.4066 10.8048C20.4066 23.5082 1.60037 23.5082 1.60037 10.8048C1.60037 -1.87236 20.4066 -1.87236 20.4066 10.8048ZM6.4198 10.8048C6.4198 17.4578 15.6134 17.4578 15.6134 10.8048C15.6134 4.20431 6.4198 4.20431 6.4198 10.8048Z" fill="#F0C665"/>
<path d="M15.0828 28.1675C15.0828 26.0393 13.3576 24.3141 11.2294 24.3141C9.10122 24.3141 7.37598 26.0393 7.37598 28.1675V45.0475C7.37598 47.1757 9.10122 48.901 11.2294 48.901C13.3576 48.901 15.0828 47.1757 15.0828 45.0475V28.1675Z" fill="#F0C665"/>
<path d="M103.186 22.9827C103.198 24.8798 101.636 26.4251 99.6998 26.4369L93.9453 26.4686C92.0087 26.4804 90.4358 24.9509 90.4239 23.0538C90.412 21.1567 91.9732 19.6114 93.9098 19.5996L99.6642 19.5679C101.601 19.5561 103.174 21.0856 103.186 22.9827Z" fill="#E07B44"/>
<path d="M101.628 34.4955C101.64 36.3926 100.253 37.9379 98.5373 37.9458L93.431 37.9735C91.7157 37.9814 90.3127 36.4519 90.3048 34.5548C90.2929 32.6577 91.6801 31.1124 93.3954 31.1045L98.5017 31.0768C100.217 31.0689 101.62 32.5984 101.628 34.4955Z" fill="#E07B44"/>
<path d="M105.829 45.8656C105.841 47.7626 103.94 49.3119 101.584 49.3238L94.585 49.3593C92.2295 49.3712 90.3126 47.8456 90.3047 45.9486C90.2929 44.0515 92.1939 42.5022 94.5494 42.4904L101.549 42.4548C103.904 42.4429 105.821 43.9685 105.829 45.8656Z" fill="#E07B44"/>
<path d="M84.9219 19.5638H84.9179C82.8814 19.5638 81.2305 21.2148 81.2305 23.2513V45.7474C81.2305 47.7839 82.8814 49.4349 84.9179 49.4349H84.9219C86.9584 49.4349 88.6093 47.7839 88.6093 45.7474V23.2513C88.6093 21.2148 86.9584 19.5638 84.9219 19.5638Z" fill="#E07B44"/>
<path d="M102.336 42.4547H93.7994C91.8699 42.4547 90.3057 44.018 90.3057 45.9465C90.3057 47.875 91.8699 49.4383 93.7994 49.4383H102.336C104.266 49.4383 105.83 47.875 105.83 45.9465C105.83 44.018 104.266 42.4547 102.336 42.4547Z" fill="#E07B44"/>
</g>
<defs>
<clipPath id="clip0_12002_26024">
<rect width="105.92" height="49.403" fill="white"/>
</clipPath>
</defs>
</svg>
