<svg width="16" height="16" viewBox="0 0 16 16" fill="none" xmlns="http://www.w3.org/2000/svg">
<path d="M9.0785 14.2453C8.78937 14.516 8.40293 14.6673 8.00075 14.6673C7.59856 14.6673 7.21212 14.516 6.92299 14.2453C4.27535 11.7513 0.727175 8.96526 2.45751 4.92043C3.39309 2.73342 5.6389 1.33398 8.00075 1.33398C10.3626 1.33398 12.6084 2.73342 13.544 4.92043C15.2721 8.96016 11.7327 11.7599 9.0785 14.2453Z" stroke="#0F0F0F" stroke-width="1.5"/>
<path d="M10.3337 7.33333C10.3337 8.622 9.28899 9.66667 8.00033 9.66667C6.71166 9.66667 5.66699 8.622 5.66699 7.33333C5.66699 6.04467 6.71166 5 8.00033 5C9.28899 5 10.3337 6.04467 10.3337 7.33333Z" stroke="#0F0F0F" stroke-width="1.5"/>
</svg>
