<svg width="318" height="217" viewBox="0 0 318 217" fill="none" xmlns="http://www.w3.org/2000/svg">

    <g clip-path="url(#clip0_12002_25881)">
<path d="M19.0724 172.218C19.0724 172.218 -2.40855 205.37 48.7284 209.393C99.8653 213.416 113.582 208.386 122.313 207.381C131.043 206.377 156.444 187.768 199.472 210.902C228.61 226.571 259.505 208.392 273.847 197.32C288.188 186.249 296.919 174.182 290.059 172.171C283.199 170.159 19.0724 172.218 19.0724 172.218Z" fill="#F5F5FC"/>
<path d="M18.1876 173.206C18.1876 173.206 -12.3188 128.208 5.69755 110.756C23.9273 93.0977 -0.0798702 70.9954 7.97588 45.2465C14.792 23.4548 56.3982 -12.2892 94.565 4.23026C147.265 27.0418 147.017 32.0598 179.444 26.4456C211.871 20.8313 249.476 -9.72844 267.74 28.7239C278.564 51.5103 308.32 56.5095 315.591 77.7143C322.862 98.9191 311.91 125.459 305.904 131.261C284.608 151.851 291.879 174.082 291.879 174.082L18.1876 173.206Z" fill="#DBF4FF"/>
<path d="M163.59 69.8343C168.606 69.8343 172.672 65.7682 172.672 60.7524C172.672 55.7365 168.606 51.6704 163.59 51.6704C158.574 51.6704 154.508 55.7365 154.508 60.7524C154.508 65.7682 158.574 69.8343 163.59 69.8343Z" fill="white"/>
<path d="M173.465 68.5664C177.171 68.5664 180.175 65.5625 180.175 61.8569C180.175 58.1514 177.171 55.1475 173.465 55.1475C169.76 55.1475 166.756 58.1514 166.756 61.8569C166.756 65.5625 169.76 68.5664 173.465 68.5664Z" fill="white"/>
<path d="M238.517 65.6447C243.108 65.6447 246.83 61.9228 246.83 57.3316C246.83 52.7405 243.108 49.0186 238.517 49.0186C233.926 49.0186 230.204 52.7405 230.204 57.3316C230.204 61.9228 233.926 65.6447 238.517 65.6447Z" fill="white"/>
<path d="M229.225 64.3455C232.617 64.3455 235.367 61.5959 235.367 58.2041C235.367 54.8122 232.617 52.0626 229.225 52.0626C225.834 52.0626 223.084 54.8122 223.084 58.2041C223.084 61.5959 225.834 64.3455 229.225 64.3455Z" fill="white"/>
<path d="M249.438 65.1301C252.83 65.1301 255.58 62.3805 255.58 58.9886C255.58 55.5968 252.83 52.8472 249.438 52.8472C246.046 52.8472 243.297 55.5968 243.297 58.9886C243.297 62.3805 246.046 65.1301 249.438 65.1301Z" fill="white"/>
<path d="M37.2237 70.4149C41.8149 70.4149 45.5368 66.693 45.5368 62.1018C45.5368 57.5106 41.8149 53.7887 37.2237 53.7887C32.6325 53.7887 28.9106 57.5106 28.9106 62.1018C28.9106 66.693 32.6325 70.4149 37.2237 70.4149Z" fill="white"/>
<path d="M28.183 67.2327C31.5748 67.2327 34.3244 64.4831 34.3244 61.0913C34.3244 57.6994 31.5748 54.9498 28.183 54.9498C24.7911 54.9498 22.0415 57.6994 22.0415 61.0913C22.0415 64.4831 24.7911 67.2327 28.183 67.2327Z" fill="white"/>
<path d="M39.7847 46.2413L40.0985 172.34H140.207L139.893 46.5552L39.7847 46.2413Z" fill="#E9EDFA"/>
<path d="M35.3911 34.63L143.031 34.9438L143.345 46.5552H35.3911V34.63Z" fill="#3071F1"/>
<path d="M143.031 69.7778H35.3911V73.2298H143.031V69.7778Z" fill="#3071F1"/>
<path d="M139.579 72.916H40.0986V76.368H139.579V72.916Z" fill="#3071F1"/>
<path d="M139.265 45.6136H39.7847V49.0657H139.265V45.6136Z" fill="#3071F1"/>
<path d="M143.659 172.083H36.0186V175.535H143.659V172.083Z" fill="#3071F1"/>
<path d="M49.827 53.1454L46.375 56.9112V62.2462L49.5132 65.3844L130.165 65.6982L133.303 62.8738V56.9112L129.537 53.1454H49.827Z" fill="#3071F1"/>
<path d="M39.7847 84.2135H46.0611V88.2932H40.0985L39.7847 84.2135Z" fill="#3071F1"/>
<path d="M39.7847 125.01H43.5505V129.09H40.0985L39.7847 125.01Z" fill="#3071F1"/>
<path d="M83.7195 119.047H73.6772V122.813H83.7195V119.047Z" fill="#3071F1"/>
<path d="M77.7571 125.324H67.7148V129.09H77.7571V125.324Z" fill="#3071F1"/>
<path d="M72.9084 102.202H62.8662V105.967H72.9084V102.202Z" fill="#3071F1"/>
<path d="M95.9582 125.638H85.916V129.404H95.9582V125.638Z" fill="#3071F1"/>
<path d="M78.1741 80.5167H68.1318V84.2826H78.1741V80.5167Z" fill="#3071F1"/>
<path d="M134.558 123.441H124.516V127.207H134.558V123.441Z" fill="#3071F1"/>
<path d="M136.127 77.3094H126.085V81.0753H136.127V77.3094Z" fill="#3071F1"/>
<path d="M133.491 135.991H115.268C114.673 135.991 114.191 136.473 114.191 137.067V171.995C114.191 172.59 114.673 173.072 115.268 173.072H133.491C134.086 173.072 134.568 172.59 134.568 171.995V137.067C134.568 136.473 134.086 135.991 133.491 135.991Z" fill="#3071F1"/>
<path d="M131.58 140.167H117.22C116.625 140.167 116.144 140.649 116.144 141.244V145.035C116.144 145.629 116.625 146.111 117.22 146.111H131.58C132.175 146.111 132.657 145.629 132.657 145.035V141.244C132.657 140.649 132.175 140.167 131.58 140.167Z" fill="white"/>
<path d="M45.6061 96.7883H47.6554L70.5391 96.7663C70.5391 96.7663 71.7944 89.8623 66.7733 85.7826C61.7521 81.703 56.5522 81.703 52.7863 83.5859C49.0205 85.4688 45.4649 88.2932 45.6061 96.7883Z" fill="#3071F1"/>
<path d="M47.6521 96.7883L47.4795 113.518H68.7753V96.3646L47.3101 96.0194L47.6521 96.7883Z" fill="#3071F1"/>
<path d="M47.4797 113.518L46.0801 113.418V116.248H70.1532L70.0339 113.418L47.4797 113.518Z" fill="#3071F1"/>
<path d="M57.5657 97.7235H50.1313V104.568H57.5657V97.7235Z" fill="white"/>
<path d="M66.1835 97.645H59.0786V104.489H66.1835V97.645Z" fill="white"/>
<path d="M66.2835 106.259H59.0405V113.104H66.2835V106.259Z" fill="white"/>
<path d="M57.6351 106.256H50.2007V113.101H57.6351V106.256Z" fill="white"/>
<path d="M48.6092 86.5923L47.7368 96.8354L51.9922 96.6973L52.8584 83.5702L50.1658 85.1487L48.9356 86.2471" fill="#3071F1"/>
<path d="M67.8966 86.8057L68.6968 96.8385L64.7992 96.7035L64.0366 83.9562L66.4405 85.5221L67.5985 86.4699" fill="#3071F1"/>
<path d="M54.2207 86.3915L53.6401 96.7381L57.3526 96.8009L58.1842 82.3903L56.5775 82.4342L54.6381 82.7982" fill="#3071F1"/>
<path d="M62.9449 86.3507L63.469 96.6973L60.1299 96.7601L59.4238 82.4468L61.1749 82.814L62.6373 83.2815" fill="#3071F1"/>
<path d="M77.3989 97.0079H79.4482L102.332 96.9859C102.332 96.9859 103.587 90.0819 98.5661 86.0022C93.5449 81.9226 88.3449 81.9226 84.5791 83.8055C80.8133 85.6884 77.2608 88.5222 77.3989 97.0079Z" fill="#3071F1"/>
<path d="M79.4482 97.0047L79.2756 113.738H100.568V96.581L79.103 96.2358L79.4482 97.0047Z" fill="#3071F1"/>
<path d="M79.2756 113.738L77.876 113.634V116.468H101.946L101.83 113.634L79.2756 113.738Z" fill="#3071F1"/>
<path d="M89.3616 97.9399H81.9272V104.784H89.3616V97.9399Z" fill="white"/>
<path d="M97.976 97.8615H90.8711V104.706H97.976V97.8615Z" fill="white"/>
<path d="M98.0764 106.476H90.8335V113.32H98.0764V106.476Z" fill="white"/>
<path d="M89.431 106.473H81.9966V113.317H89.431V106.473Z" fill="white"/>
<path d="M80.4022 86.8087L79.5298 97.0518L83.7852 96.9169L84.6513 83.7898L81.9619 85.3683L80.7286 86.4667" fill="#3071F1"/>
<path d="M99.6896 87.0221L100.49 97.058L96.5922 96.9231L95.8296 84.1726L98.2334 85.7386L99.3914 86.6863" fill="#3071F1"/>
<path d="M86.0132 86.6079L85.4326 96.9545L89.1451 97.0173L89.9767 82.6067L88.37 82.6506L86.4306 83.0178" fill="#3071F1"/>
<path d="M94.7405 86.5703L95.2614 96.9138L91.9255 96.9766L91.2163 82.6664L92.9706 83.0304L94.4298 83.498" fill="#3071F1"/>
<path d="M108.759 97.0079H110.808L133.692 96.9859C133.692 96.9859 134.947 90.0819 129.926 86.0022C124.905 81.9226 119.705 81.9226 115.939 83.8055C112.173 85.6884 108.618 88.5222 108.759 97.0079Z" fill="#3071F1"/>
<path d="M110.805 97.0047L110.633 113.738H131.928V96.581L110.46 96.2358L110.805 97.0047Z" fill="#3071F1"/>
<path d="M110.633 113.738L109.233 113.634V116.468H133.306L133.187 113.634L110.633 113.738Z" fill="#3071F1"/>
<path d="M120.719 97.9399H113.284V104.784H120.719V97.9399Z" fill="white"/>
<path d="M129.333 97.8615H122.228V104.706H129.333V97.8615Z" fill="white"/>
<path d="M129.436 106.476H122.193V113.32H129.436V106.476Z" fill="white"/>
<path d="M120.788 106.473H113.354V113.317H120.788V106.473Z" fill="white"/>
<path d="M111.762 86.8087L110.89 97.0518L115.145 96.9169L116.008 83.7898L113.319 85.3683L112.085 86.4667" fill="#3071F1"/>
<path d="M131.049 87.0221L131.85 97.058L127.949 96.9231L127.189 84.1726L129.593 85.7386L130.751 86.6863" fill="#3071F1"/>
<path d="M117.374 86.6079L116.793 96.9545L120.505 97.0173L121.334 82.6067L119.73 82.6506L117.791 83.0178" fill="#3071F1"/>
<path d="M126.098 86.5703L126.622 96.9138L123.283 96.9766L122.577 82.6664L124.328 83.0304L125.787 83.498" fill="#3071F1"/>
<path d="M45.678 144.643H51.1039L111.671 144.621C111.671 144.621 116.589 136.989 103.298 132.821C90.0082 128.654 68.1506 129.84 58.1931 131.763C48.2356 133.687 45.3077 135.978 45.678 144.643Z" fill="#3071F1"/>
<path d="M46.4718 144.796L45.9415 172.14H111.495V144.106L45.4111 143.541L46.4718 144.796Z" fill="#3071F1"/>
<path d="M107.409 145.167H49.6509V159.091H107.409V145.167Z" fill="white"/>
<path d="M86.6532 161.335H70.0176V168.179H86.6532V161.335Z" fill="white"/>
<path d="M66.682 161.454H50.0464V168.298H66.682V161.454Z" fill="white"/>
<path d="M106.863 161.454H90.2275V168.298H106.863V161.454Z" fill="white"/>
<path d="M51.8098 133.926L50.6235 143.814L56.2754 143.685L57.2797 131.704L53.9657 132.498L52.133 133.251" fill="#3071F1"/>
<path d="M61.1364 134.026L60.1855 143.72L65.8563 143.648L66.8887 130.515L64.1208 130.841L61.6197 131.073" fill="#3071F1"/>
<path d="M103.361 133.854L104.293 143.742L99.8492 143.613L99.0615 131.632L101.666 132.426L103.107 133.179" fill="#3071F1"/>
<path d="M95.9861 133.954L96.777 143.648L92.054 143.576L91.1973 130.442L93.5007 130.769L95.5813 131.001" fill="#3071F1"/>
<path d="M87.3153 133.879L88.1061 143.573L83.3831 143.503L82.5044 130.059L84.7419 130.169L86.8728 130.279" fill="#3071F1"/>
<path d="M77.0472 134.24L77.838 143.933L73.115 143.864L72.2363 130.423L74.59 130.342L76.8024 130.295" fill="#3071F1"/>
<path d="M147.98 111.889L147.682 174.71L253.838 174.995V111.306L147.98 111.889Z" fill="#E9EDFA"/>
<path d="M254.735 171.785H147.095V175.237H254.735V171.785Z" fill="#3071F1"/>
<path d="M259.838 111.83H142.112V115.991H259.838V111.83Z" fill="#3071F1"/>
<path d="M143.973 112.507C143.973 112.507 145.228 93.8038 157.467 93.4461C167.547 93.1511 219.211 93.4053 237.008 93.5685C247.489 93.6657 256.464 101.414 257.742 111.817C257.769 112.045 257.794 112.275 257.817 112.507H143.973Z" fill="#3071F1"/>
<path d="M247.364 140.152H253.641V144.232H247.678L247.364 140.152Z" fill="#3071F1"/>
<path d="M249.953 123.111H253.719V127.191H250.267L249.953 123.111Z" fill="#3071F1"/>
<path d="M162.614 153.568H152.571V157.333H162.614V153.568Z" fill="#3071F1"/>
<path d="M159.061 137.026H149.019V140.792H159.061V137.026Z" fill="#3071F1"/>
<path d="M165.3 123.629H155.258V127.395H165.3V123.629Z" fill="#3071F1"/>
<path d="M201.01 120.328H190.968V124.094H201.01V120.328Z" fill="#3071F1"/>
<path d="M251.679 132.852H241.637V136.618H251.679V132.852Z" fill="#3071F1"/>
<path d="M246.246 161.934H236.204V165.7H246.246V161.934Z" fill="#3071F1"/>
<path d="M222.406 117.318H212.363V121.084H222.406V117.318Z" fill="#3071F1"/>
<path d="M167.252 144.241H172.678L233.245 144.219C233.245 144.219 238.163 136.587 224.873 132.419C211.582 128.252 189.725 129.438 179.767 131.362C169.81 133.285 166.882 135.576 167.252 144.241Z" fill="#3071F1"/>
<path d="M168.046 144.395L167.516 171.738H233.069V143.704L166.985 143.139L168.046 144.395Z" fill="#3071F1"/>
<path d="M228.983 144.765H191.592V158.689H228.983V144.765Z" fill="white"/>
<path d="M208.227 160.933H191.592V167.777H208.227V160.933Z" fill="white"/>
<path d="M188.256 145.026H171.621V167.897H188.256V145.026Z" fill="white"/>
<path d="M228.44 161.052H211.805V167.897H228.44V161.052Z" fill="white"/>
<path d="M173.384 133.524L172.201 143.412L177.853 143.284L178.854 131.302L175.543 132.096L173.711 132.849" fill="#3071F1"/>
<path d="M182.71 133.624L181.763 143.318L187.433 143.246L188.463 130.113L185.698 130.439L183.197 130.671" fill="#3071F1"/>
<path d="M224.938 133.452L225.867 143.34L221.426 143.212L220.639 131.23L223.24 132.024L224.681 132.777" fill="#3071F1"/>
<path d="M217.564 133.552L218.351 143.246L213.628 143.174L212.771 130.041L215.075 130.367L217.159 130.599" fill="#3071F1"/>
<path d="M208.89 133.477L209.681 143.171L204.958 143.102L204.079 129.661L206.317 129.768L208.447 129.877" fill="#3071F1"/>
<path d="M198.625 133.841L199.412 143.532L194.689 143.463L193.811 130.022L196.164 129.94L198.377 129.896" fill="#3071F1"/>
<path d="M264.351 171.151H264.348C263.54 171.151 262.886 171.806 262.886 172.613V175.67C262.886 176.478 263.54 177.132 264.348 177.132H264.351C265.159 177.132 265.814 176.478 265.814 175.67V172.613C265.814 171.806 265.159 171.151 264.351 171.151Z" fill="white"/>
<path d="M273.766 171.151H273.763C272.956 171.151 272.301 171.806 272.301 172.613V175.67C272.301 176.478 272.956 177.132 273.763 177.132H273.766C274.574 177.132 275.229 176.478 275.229 175.67V172.613C275.229 171.806 274.574 171.151 273.766 171.151Z" fill="white"/>
<path d="M261.743 149.406C261.743 149.406 259.471 172.99 259.904 173.313C260.338 173.636 277.645 173.853 278.078 173.53C278.511 173.206 276.779 149.623 276.455 149.513C276.132 149.403 262.283 149.083 261.743 149.406Z" fill="#3071F1"/>
<path d="M274.127 155.356H264.609C264.28 155.356 264.013 155.623 264.013 155.951C264.013 156.28 264.28 156.546 264.609 156.546H274.127C274.456 156.546 274.723 156.28 274.723 155.951C274.723 155.623 274.456 155.356 274.127 155.356Z" fill="white"/>
<path d="M275.21 159.141H263.313C262.984 159.141 262.717 159.407 262.717 159.736C262.717 160.064 262.984 160.33 263.313 160.33H275.21C275.539 160.33 275.806 160.064 275.806 159.736C275.806 159.407 275.539 159.141 275.21 159.141Z" fill="white"/>
<g clip-path="url(#clip1_12002_25881)">
<path d="M293.096 39.6931L285.956 23.1557C283.087 16.5097 288.015 9.12573 295.319 9.12573C302.412 9.12573 307.197 16.3009 304.412 22.7495L297.097 39.6931C296.93 40.0809 296.651 40.4115 296.295 40.6439C295.94 40.8763 295.523 41.0002 295.096 41.0002C294.67 41.0002 294.253 40.8763 293.898 40.6439C293.542 40.4115 293.263 40.0809 293.096 39.6931Z" fill="url(#paint0_linear_12002_25881)"/>
<path d="M295.182 24.6907C298.248 24.6907 300.734 22.2315 300.734 19.1979C300.734 16.1643 298.248 13.7051 295.182 13.7051C292.116 13.7051 289.63 16.1643 289.63 19.1979C289.63 22.2315 292.116 24.6907 295.182 24.6907Z" fill="white"/>
<path d="M282.109 23.4043H278V24.692H282.109V23.4043Z" fill="#FEFEFE"/>
<path d="M313 23.4043H308.891V24.692H313V23.4043Z" fill="#FEFEFE"/>
<path d="M308.18 35.3762L305.274 32.5015L304.354 33.412L307.26 36.2867L308.18 35.3762Z" fill="#FEFEFE"/>
<path d="M285.61 32.92L282.704 35.7947L283.624 36.7052L286.53 33.8305L285.61 32.92Z" fill="#FEFEFE"/>
<path d="M284.282 12.7285L280.953 10.3298L280.185 11.3729L283.514 13.7715L284.282 12.7285Z" fill="#FEFEFE"/>
<path d="M296.106 7.06548V3H294.805V7.06548H296.106Z" fill="#FEFEFE"/>
<path d="M306.03 13.5109L309.589 11.4781L308.938 10.363L305.379 12.3957L306.03 13.5109Z" fill="#FEFEFE"/>
</g>
</g>
<defs>
<linearGradient id="paint0_linear_12002_25881" x1="285.127" y1="25.0622" x2="305.216" y2="25.0622" gradientUnits="userSpaceOnUse">
<stop stop-color="#B3E7FF"/>
<stop offset="1" stop-color="#00B0FF"/>
</linearGradient>
<clipPath id="clip0_12002_25881">
<rect width="318" height="217" fill="white"/>
</clipPath>
<clipPath id="clip1_12002_25881">
<rect width="35" height="38" fill="white" transform="translate(278 3)"/>
</clipPath>
</defs>
</svg>
