<svg width="20" height="20" viewBox="0 0 20 20" fill="none" xmlns="http://www.w3.org/2000/svg">
<g clip-path="url(#clip0_16822_38283)">
<path d="M12.5 6.25V15.6773C12.5001 15.7801 12.5255 15.8813 12.574 15.9719C12.6225 16.0626 12.6926 16.1398 12.7781 16.1969L13.6375 16.7695C13.7209 16.8251 13.8164 16.8598 13.9159 16.8708C14.0155 16.8817 14.1163 16.8686 14.2097 16.8324C14.3032 16.7963 14.3865 16.7382 14.4528 16.6631C14.5191 16.5879 14.5664 16.498 14.5906 16.4008L15.625 12.5" stroke="#0F0F0F" stroke-width="1.5" stroke-linecap="round" stroke-linejoin="round"/>
<path d="M3.125 15.625C3.12503 15.744 3.15904 15.8606 3.22305 15.9609C3.28705 16.0613 3.37837 16.1413 3.48629 16.1915C3.5942 16.2417 3.71421 16.2601 3.8322 16.2444C3.95019 16.2288 4.06126 16.1797 4.15234 16.1031C8.24609 12.6687 12.5 12.5 12.5 12.5H15.625C16.4538 12.5 17.2487 12.1707 17.8347 11.5847C18.4208 10.9986 18.75 10.2038 18.75 9.37499C18.75 8.54619 18.4208 7.75133 17.8347 7.16528C17.2487 6.57923 16.4538 6.24999 15.625 6.24999H12.5C12.5 6.24999 8.24609 6.08124 4.15234 2.64764C4.06131 2.57106 3.95031 2.52205 3.83239 2.50637C3.71447 2.49069 3.59452 2.50899 3.48664 2.55911C3.37876 2.60924 3.28742 2.68911 3.22336 2.78935C3.1593 2.88959 3.12518 3.00603 3.125 3.12499V15.625Z" stroke="#0F0F0F" stroke-width="1.5" stroke-linecap="round" stroke-linejoin="round"/>
</g>
<defs>
<clipPath id="clip0_16822_38283">
<rect width="20" height="20" fill="white"/>
</clipPath>
</defs>
</svg>
