<svg width="186" height="186" viewBox="0 0 186 186" fill="none" xmlns="http://www.w3.org/2000/svg">
<path d="M121.589 108.431L108.988 95.8301C108.477 95.3191 108.19 94.6261 108.19 93.9036C108.19 93.181 108.477 92.4881 108.988 91.9771C109.499 91.4662 110.192 91.1792 110.915 91.1792C111.637 91.1792 112.33 91.4662 112.841 91.9771L125.442 104.578C125.699 104.83 125.904 105.13 126.045 105.462C126.185 105.794 126.259 106.15 126.261 106.51C126.263 106.871 126.193 107.228 126.056 107.561C125.919 107.894 125.717 108.197 125.463 108.451C125.208 108.706 124.905 108.908 124.572 109.045C124.239 109.182 123.882 109.251 123.522 109.249C123.161 109.248 122.805 109.174 122.473 109.034C122.142 108.893 121.841 108.688 121.589 108.431ZM104.578 125.441L91.9776 112.84C91.4667 112.329 91.1797 111.636 91.1797 110.914C91.1797 110.191 91.4667 109.498 91.9776 108.987C92.4886 108.476 93.1815 108.189 93.9041 108.189C94.6266 108.189 95.3196 108.476 95.8306 108.987L108.431 121.588C108.942 122.099 109.229 122.792 109.229 123.515C109.229 124.237 108.942 124.93 108.431 125.441C107.92 125.952 107.227 126.239 106.505 126.239C105.782 126.239 105.089 125.952 104.578 125.441Z" fill="#DBEDFF"/>
<path d="M182.146 148.532L132.621 99.0063C131.113 97.4979 128.667 97.4979 127.159 99.0063L99.0063 127.159C97.4979 128.667 97.4979 131.113 99.0063 132.621L148.532 182.146C150.04 183.655 152.486 183.655 153.994 182.146L182.146 153.994C183.655 152.486 183.655 150.04 182.146 148.532Z" fill="#F4F4F4"/>
<path d="M145.752 114.242C146.132 113.862 146.597 113.658 147.057 113.442L132.293 98.6772C130.784 97.1688 128.339 97.1688 126.83 98.6772L98.6781 126.83C97.1698 128.338 97.1698 130.784 98.6781 132.292L113.251 146.865L145.752 114.242Z" fill="#818181"/>
<path d="M67.7022 106.105H66.2306L53.5767 118.759C53.301 119.035 53.0823 119.362 52.9331 119.722C52.7838 120.083 52.707 120.469 52.707 120.859C52.707 121.249 52.7838 121.635 52.9331 121.995C53.0823 122.355 53.301 122.682 53.5767 122.958L63.0464 132.428C63.3221 132.703 63.6494 132.922 64.0096 133.071C64.3698 133.221 64.7559 133.297 65.1458 133.297C65.5357 133.297 65.9218 133.221 66.282 133.071C66.6422 132.922 66.9695 132.703 67.2452 132.428L79.899 119.774V118.224L67.7022 106.105Z" fill="#FFF1AF"/>
<path d="M60.0174 125.693L73.6724 112.037L67.7022 106.105H66.2306L53.5767 118.759C53.301 119.035 53.0823 119.362 52.9331 119.722C52.7838 120.083 52.707 120.469 52.707 120.859C52.707 121.249 52.7838 121.635 52.9331 121.995C53.0823 122.355 53.301 122.682 53.5767 122.958L59.1055 128.487C58.9544 127.498 59.2559 126.454 60.0174 125.693Z" fill="#F6CF7A"/>
<path d="M121.278 57.1322L119.944 56.811L111.441 65.3136V66.5473L119.622 74.5631H120.691L129.194 66.0605V65.0034L121.278 57.1322Z" fill="#FFF1AF"/>
<path d="M125.11 60.9426L121.278 57.1322L119.944 56.811L111.441 65.3136V66.5473L115.515 70.5383L125.11 60.9426Z" fill="#F6CF7A"/>
<path d="M162.286 64.7258H162.256C161.533 64.7179 160.843 64.4232 160.338 63.9067C159.833 63.3901 159.553 62.694 159.561 61.9714L159.955 26.048L124.032 26.4421C122.538 26.4625 121.294 25.2524 121.278 23.7477C121.261 22.243 122.467 21.0096 123.972 20.9933L162.68 20.5686C164.176 20.533 165.451 21.7802 165.435 23.323L165.01 62.0314C165.002 62.7486 164.712 63.4338 164.202 63.9382C163.692 64.4427 163.003 64.7257 162.286 64.7258Z" fill="#B5DCFF"/>
<path d="M141.22 44.7859C140.709 44.2749 140.422 43.582 140.422 42.8594C140.422 42.1368 140.709 41.4439 141.22 40.9329L168.414 13.7391C168.667 13.4861 168.967 13.2853 169.297 13.1484C169.628 13.0114 169.982 12.9409 170.34 12.9409C170.698 12.9409 171.052 13.0114 171.383 13.1484C171.713 13.2853 172.014 13.4861 172.267 13.7391C172.777 14.2501 173.064 14.9431 173.064 15.6656C173.064 16.3882 172.777 17.0811 172.267 17.5921L145.073 44.7859C144.562 45.2968 143.869 45.5838 143.146 45.5838C142.424 45.5838 141.731 45.2968 141.22 44.7859Z" fill="#B5DCFF"/>
<path d="M90.3842 77.2265L77.5738 64.4165C77.0629 63.9055 76.7759 63.2126 76.7759 62.49C76.7759 61.7675 77.0629 61.0745 77.5738 60.5635C78.0848 60.0526 78.7777 59.7656 79.5003 59.7656C80.2229 59.7656 80.9158 60.0526 81.4268 60.5635L94.2372 73.3736C94.4946 73.6256 94.6995 73.9261 94.84 74.2578C94.9805 74.5895 95.0539 74.9458 95.0558 75.306C95.0577 75.6663 94.9882 76.0233 94.8512 76.3565C94.7142 76.6897 94.5125 76.9924 94.2578 77.2471C94.0031 77.5019 93.7004 77.7036 93.3672 77.8405C93.034 77.9775 92.6769 78.047 92.3167 78.0451C91.9565 78.0432 91.6002 77.9699 91.2685 77.8294C90.9368 77.6888 90.6362 77.4839 90.3842 77.2265ZM73.3736 94.2368L60.5635 81.4264C60.0526 80.9155 59.7656 80.2225 59.7656 79.4999C59.7656 78.7774 60.0526 78.0844 60.5635 77.5735C61.0745 77.0626 61.7675 76.7755 62.49 76.7755C63.2126 76.7755 63.9055 77.0626 64.4165 77.5735L77.2265 90.3838C77.7374 90.8948 78.0244 91.5878 78.0244 92.3103C78.0244 93.0329 77.7374 93.7258 77.2265 94.2368C76.9736 94.4899 76.6732 94.6906 76.3427 94.8276C76.0121 94.9645 75.6578 95.035 75.3 95.035C74.9422 95.035 74.5879 94.9645 74.2574 94.8276C73.9268 94.6906 73.6265 94.4899 73.3736 94.2368Z" fill="#DBEDFF"/>
<path d="M86.9984 53.3831L37.4726 3.85733C35.9643 2.34899 33.5186 2.34899 32.0103 3.85733L3.85782 32.0098C2.34948 33.5182 2.34948 35.9638 3.85782 37.4721L53.3832 86.9975C54.8916 88.5059 57.3372 88.5059 58.8455 86.9975L86.998 58.845C88.5067 57.3371 88.5067 54.8914 86.9984 53.3831Z" fill="#F4F4F4"/>
<path d="M19.5305 50.2314L50.3487 19.4132C50.8143 18.9481 51.3826 18.5988 52.0078 18.3934L37.4726 3.85782C35.9643 2.34948 33.5186 2.34948 32.0103 3.85782L3.85782 32.0099C2.34948 33.5183 2.34948 35.9639 3.85782 37.4722L18.4537 52.0681C18.6492 51.3737 19.02 50.7412 19.5305 50.2314Z" fill="#818181"/>
<path d="M184.074 146.606L134.548 97.0803C131.973 94.5057 127.807 94.5053 125.232 97.0803L97.0798 125.232C94.5052 127.807 94.5052 131.974 97.0798 134.548L146.605 184.074C149.173 186.642 153.353 186.642 155.921 184.074L184.073 155.922C186.642 153.353 186.642 149.174 184.074 146.606ZM162.468 169.82L155.406 162.758L162.758 155.406L169.82 162.469L162.468 169.82ZM151.553 158.905L144.615 151.967L151.967 144.615L158.905 151.553L151.553 158.905ZM133.41 163.172L140.762 155.821L147.7 162.758L140.348 170.11L133.41 163.172ZM122.619 152.381L129.971 145.03L136.909 151.968L129.557 159.319L122.619 152.381ZM111.828 141.59L119.18 134.239L126.118 141.177L118.766 148.528L111.828 141.59ZM118.685 111.334L126.532 119.18L119.18 126.532L111.334 118.685L118.685 111.334ZM130.385 123.034L137.323 129.972L129.971 137.323L123.033 130.385L130.385 123.034ZM148.528 118.766L141.176 126.118L134.238 119.18L141.59 111.828L148.528 118.766ZM159.319 129.557L151.967 136.909L145.029 129.971L152.381 122.619L159.319 129.557ZM148.114 140.762L140.762 148.114L133.824 141.176L141.176 133.824L148.114 140.762ZM155.82 140.762L163.172 133.411L170.11 140.349L162.758 147.7L155.82 140.762ZM129.086 100.933C129.299 100.72 129.588 100.6 129.89 100.6C130.192 100.6 130.481 100.72 130.695 100.933L137.737 107.975L130.385 115.327L122.538 107.48L129.086 100.933ZM100.933 129.086L107.48 122.539L115.327 130.385L107.975 137.737L100.933 130.695C100.72 130.481 100.6 130.192 100.6 129.89C100.6 129.589 100.72 129.299 100.933 129.086ZM152.068 180.221C151.855 180.434 151.565 180.554 151.264 180.554C150.962 180.554 150.673 180.434 150.459 180.221L144.202 173.964L151.554 166.612L158.616 173.674L152.068 180.221ZM180.221 152.069L173.674 158.616L166.611 151.553L173.963 144.202L180.221 150.459C180.434 150.673 180.553 150.962 180.553 151.264C180.553 151.566 180.434 151.855 180.221 152.069ZM39.3988 1.93107C36.8242 -0.64351 32.6577 -0.643873 30.0832 1.93107L1.93094 30.0837C-0.643646 32.6582 -0.643646 36.8247 1.93094 39.3993L51.4565 88.9249C54.0242 91.493 58.2041 91.4933 60.7722 88.9249L88.9244 60.7727C91.4928 58.2043 91.4928 54.0255 88.9244 51.457L39.3988 1.93107ZM67.3196 74.6715L60.2574 67.6093L67.6092 60.2576L74.6714 67.3198L67.3196 74.6715ZM56.4044 63.7563L49.4665 56.8184L56.8182 49.4666L63.7562 56.4046L56.4044 63.7563ZM38.2614 68.0231L45.6131 60.6713L52.5511 67.6093L45.1994 74.9611L38.2614 68.0231ZM27.4704 57.2321L34.8222 49.8804L41.7602 56.8184L34.4084 64.1701L27.4704 57.2321ZM16.6795 46.4412L24.0312 39.0894L30.9692 46.0274L23.6171 53.3792L16.6795 46.4412ZM23.5365 16.1848L31.383 24.0314L24.0312 31.3831L16.1847 23.5366L23.5365 16.1848ZM35.236 27.8844L42.1739 34.8223L34.8222 42.1741L27.8842 35.2361L35.236 27.8844ZM53.379 23.6172L46.0273 30.969L39.0893 24.0314L46.4411 16.6796L53.379 23.6172ZM64.17 34.4085L56.8182 41.7603L49.8803 34.8223L57.232 27.4706L64.17 34.4085ZM52.9649 45.6133L45.6131 52.965L38.6752 46.0271L46.0269 38.6753L52.9649 45.6133ZM60.6712 45.6133L68.0229 38.2615L74.9609 45.1995L67.6092 52.5513L60.6712 45.6133ZM33.9369 5.78441C34.1502 5.57107 34.4396 5.45122 34.7414 5.45122C35.0431 5.45122 35.3325 5.57107 35.5458 5.78441L42.5877 12.8263L35.236 20.178L27.3894 12.3315L33.9369 5.78441ZM5.78428 33.9366L12.3314 27.3896L20.1779 35.2361L12.8261 42.5879L5.78428 35.546C5.57091 35.3326 5.45105 35.0431 5.45105 34.7413C5.45105 34.4395 5.57091 34.1501 5.78428 33.9366ZM56.9192 85.0716C56.7056 85.2847 56.4163 85.4044 56.1145 85.4044C55.8128 85.4044 55.5235 85.2847 55.3099 85.0716L49.0527 78.8144L56.4044 71.4627L63.4667 78.5245L56.9192 85.0716ZM85.0714 56.9194L78.5244 63.4664L71.4622 56.4042L78.8139 49.0525L85.0714 55.31C85.2845 55.5236 85.4041 55.813 85.4041 56.1147C85.4041 56.4164 85.2845 56.7057 85.0714 56.9194Z" fill="#D8D8D8"/>
<path d="M30.0834 1.93079L1.93093 30.0833C-0.643644 32.6579 -0.643644 36.8243 1.93093 39.3989L16.4531 53.9211C16.6867 53.391 17.015 52.9081 17.422 52.4959L20.0677 49.8294L16.6791 46.4407L24.0311 39.089L27.3915 42.4494L31.2299 38.5815L27.8845 35.2361L35.2362 27.8843L38.5533 31.2015L42.3914 27.3332L39.0892 24.031L46.4409 16.6793L49.7151 19.9535L52.0993 17.5508C52.6036 17.044 53.2165 16.6586 53.8918 16.4239L39.3987 1.93079C36.8245 -0.643417 32.658 -0.64378 30.0834 1.93079ZM12.8261 42.5878L5.78426 35.5456C5.57089 35.3321 5.45103 35.0427 5.45103 34.7409C5.45103 34.4391 5.57089 34.1497 5.78426 33.9362L12.3313 27.3892L20.1778 35.2357L12.8261 42.5878ZM24.0311 31.3827L16.1846 23.5362L23.5364 16.1845L31.3829 24.031L24.0311 31.3827ZM35.2358 20.1777L27.3893 12.3312L33.9364 5.78412C34.1497 5.57078 34.4391 5.45092 34.7409 5.45092C35.0426 5.45092 35.332 5.57078 35.5453 5.78412L42.5872 12.826L35.2358 20.1777Z" fill="#BEBEBE"/>
<path d="M30.0835 1.9308L1.93094 30.0834C-0.643646 32.658 -0.643646 36.8245 1.93094 39.3991L16.4532 53.9213C16.6867 53.3912 17.0151 52.9083 17.422 52.4961L20.0678 49.8296L16.6791 46.4409L24.0312 39.0892L27.3916 42.4495L31.2301 38.5817L27.8846 35.2362L35.2363 27.8844L38.5535 31.2016L42.3916 27.3333L39.0893 24.0311L46.4411 16.6794L49.7153 19.9536L52.0995 17.5509C52.6038 17.0441 53.2167 16.6587 53.892 16.424L39.3988 1.9308C36.8246 -0.643419 32.6581 -0.643782 30.0835 1.9308ZM12.8262 42.588L5.78428 35.5457C5.57091 35.3323 5.45105 35.0428 5.45105 34.741C5.45105 34.4392 5.57091 34.1498 5.78428 33.9364L12.3314 27.3893L20.1779 35.2358L12.8262 42.588ZM24.0312 31.3829L16.1847 23.5363L23.5365 16.1846L31.383 24.0311L24.0312 31.3829ZM35.236 20.1778L27.3894 12.3312L33.9365 5.78414C34.1499 5.5708 34.4393 5.45095 34.741 5.45095C35.0427 5.45095 35.3321 5.5708 35.5455 5.78414L42.5874 12.826L35.236 20.1778ZM125.23 97.0774L97.0776 125.23C94.503 127.804 94.503 131.971 97.0776 134.545L111.6 149.068C111.833 148.538 112.162 148.055 112.569 147.642L115.214 144.976L111.826 141.587L119.178 134.235L122.538 137.596L126.376 133.728L123.031 130.382L130.383 123.031L133.7 126.348L137.538 122.48L134.236 119.177L141.587 111.826L144.862 115.1L147.246 112.697C147.75 112.19 148.363 111.805 149.038 111.57L134.545 97.0774C131.971 94.5029 127.804 94.5025 125.23 97.0774ZM107.973 137.734L100.931 130.692C100.717 130.479 100.597 130.189 100.597 129.887C100.597 129.586 100.717 129.296 100.931 129.083L107.478 122.536L115.324 130.382L107.973 137.734ZM119.178 126.53L111.331 118.683L118.683 111.331L126.529 119.178L119.178 126.53ZM130.383 115.324L122.536 107.478L129.083 100.931C129.297 100.717 129.586 100.598 129.888 100.598C130.189 100.598 130.479 100.717 130.692 100.931L137.734 107.973L130.383 115.324Z" fill="#BEBEBE"/>
<path d="M123.756 77.6291L108.375 62.2474C106.491 60.3641 103.438 60.3641 101.554 62.2474L65.3736 98.428C63.49 100.312 63.49 103.365 65.3736 105.248L80.7553 120.63C82.6386 122.513 85.6923 122.513 87.5756 120.63L123.756 84.4493C125.639 82.5661 125.64 79.5127 123.756 77.6291Z" fill="#FFE07D"/>
<path d="M72.8836 108.027L110.545 70.3649C111.792 69.1185 113.53 68.6677 115.135 69.0062L108.376 62.2474C106.493 60.3641 103.439 60.3641 101.556 62.2474L65.3753 98.428C63.4921 100.312 63.4921 103.365 65.3753 105.248L71.4265 111.299C71.4908 110.066 72.0099 108.9 72.8836 108.027Z" fill="#F6CF7A"/>
<path d="M124.003 62.0019C134.574 72.5734 151.715 72.5738 162.286 62.0019L124.003 23.7183C113.431 34.2901 113.431 51.4301 124.003 62.0019Z" fill="#B5DCFF"/>
<path d="M133.491 33.2057L124.003 23.7183C113.431 34.2901 113.431 51.4301 124.003 62.0016C126.518 64.5212 129.506 66.5183 132.796 67.8776C124.651 57.7352 124.884 43.0939 133.491 33.2057Z" fill="#10C8F6"/>
<path d="M165.205 67.6446C164.847 67.6451 164.493 67.5748 164.162 67.4378C163.832 67.3009 163.531 67.0999 163.279 66.8465L119.159 22.727C118.648 22.2161 118.361 21.5231 118.361 20.8006C118.361 20.078 118.648 19.385 119.159 18.8741C119.67 18.3632 120.363 18.0762 121.086 18.0762C121.808 18.0762 122.501 18.3632 123.012 18.8741L167.132 62.9931C167.643 63.5041 167.93 64.1971 167.93 64.9196C167.93 65.6422 167.643 66.3351 167.132 66.8461C166.879 67.0996 166.579 67.3006 166.248 67.4377C165.917 67.5747 165.563 67.645 165.205 67.6446Z" fill="#10C8F6"/>
<path d="M172.819 19.592C176.356 19.592 179.223 16.7246 179.223 13.1874C179.223 9.65017 176.356 6.78271 172.819 6.78271C169.282 6.78271 166.414 9.65017 166.414 13.1874C166.414 16.7246 169.282 19.592 172.819 19.592Z" fill="#FFE07D"/>
<path d="M174.695 17.7152C172.193 15.214 172.193 11.159 174.695 8.65784C175.091 8.26445 175.537 7.92467 176.021 7.64719C173.571 6.2293 170.386 6.5617 168.29 8.65784C165.789 11.159 165.789 15.214 168.29 17.7152C170.386 19.8113 173.571 20.1437 176.021 18.7258C175.536 18.4485 175.091 18.1087 174.695 17.7152Z" fill="#FFA500"/>
</svg>
