<svg width="52" height="53" viewBox="0 0 52 53" fill="none" xmlns="http://www.w3.org/2000/svg">
<rect width="52" height="52" rx="26" fill="#60CAFA" fill-opacity="0.15"/>
<path d="M18.9516 30.5257C17.1124 31.6208 12.2902 33.857 15.2272 36.6551C16.662 38.022 18.2599 38.9996 20.2689 38.9996H31.7327C33.7416 38.9996 35.3396 38.022 36.7743 36.6551C39.7114 33.857 34.8891 31.6208 33.0499 30.5257C28.737 27.9576 23.2645 27.9576 18.9516 30.5257Z" stroke="#3071F1" stroke-width="1.5" stroke-linecap="round" stroke-linejoin="round"/>
<path d="M31.8504 18.85C31.8504 22.0809 29.2313 24.7 26.0004 24.7C22.7695 24.7 20.1504 22.0809 20.1504 18.85C20.1504 15.6191 22.7695 13 26.0004 13C29.2313 13 31.8504 15.6191 31.8504 18.85Z" stroke="#3071F1" stroke-width="1.5"/>
</svg>
