<svg width="25" height="25" viewBox="0 0 25 25" fill="none" xmlns="http://www.w3.org/2000/svg">
<path d="M22.25 7.25C22.6642 7.25 23 6.91421 23 6.5C23 6.08579 22.6642 5.75 22.25 5.75V7.25ZM14.25 5.75C13.8358 5.75 13.5 6.08579 13.5 6.5C13.5 6.91421 13.8358 7.25 14.25 7.25V5.75ZM19 2.5C19 2.08579 18.6642 1.75 18.25 1.75C17.8358 1.75 17.5 2.08579 17.5 2.5H19ZM17.5 10.5C17.5 10.9142 17.8358 11.25 18.25 11.25C18.6642 11.25 19 10.9142 19 10.5H17.5ZM22.25 6.5V5.75H18.25V6.5V7.25H22.25V6.5ZM18.25 6.5V5.75H14.25V6.5V7.25H18.25V6.5ZM18.25 2.5H17.5V6.5H18.25H19V2.5H18.25ZM18.25 6.5H17.5V10.5H18.25H19V6.5H18.25Z" fill="#0F0F0F"/>
<path d="M11.75 3.5C7.27166 3.5 5.03249 3.5 3.64124 4.89124C2.25 6.28249 2.25 8.52166 2.25 13C2.25 17.4783 2.25 19.7175 3.64124 21.1088C5.03249 22.5 7.27166 22.5 11.75 22.5C16.2283 22.5 18.4675 22.5 19.8588 21.1088C21.25 19.7175 21.25 17.4783 21.25 13V12.5" stroke="#0F0F0F" stroke-width="1.5" stroke-linecap="round"/>
<path d="M5.25 21.5C9.45998 16.7487 14.1912 10.4475 21.25 15.1734" stroke="#0F0F0F" stroke-width="1.5"/>
</svg>
