<svg width="25" height="25" viewBox="0 0 25 25" fill="none" xmlns="http://www.w3.org/2000/svg">
<path d="M17.75 6.5C20.0956 6.5 20.7684 6.5 21.5763 7.11994C21.7843 7.27954 21.9705 7.46572 22.1301 7.67372C22.75 8.48164 22.75 9.65442 22.75 12V16.5C22.75 19.3284 22.75 20.7426 21.8713 21.6213C20.9926 22.5 19.5784 22.5 16.75 22.5H8.75C5.92157 22.5 4.50736 22.5 3.62868 21.6213C2.75 20.7426 2.75 19.3284 2.75 16.5V12C2.75 9.65442 2.75 8.48164 3.36994 7.67372C3.52954 7.46572 3.71572 7.27954 3.92372 7.11994C4.73164 6.5 5.40442 6.5 7.75 6.5" stroke="#141B34" stroke-width="1.5" stroke-linecap="round"/>
<path d="M17.75 7.5L16.8642 5.28543C16.482 4.32996 16.1494 3.2461 15.1666 2.75955C14.6424 2.5 14.0116 2.5 12.75 2.5C11.4884 2.5 10.8576 2.5 10.3334 2.75955C9.3506 3.2461 9.01801 4.32996 8.63583 5.28543L7.75 7.5" stroke="#141B34" stroke-width="1.5" stroke-linecap="round" stroke-linejoin="round"/>
<path d="M16.25 14.5C16.25 16.433 14.683 18 12.75 18C10.817 18 9.25 16.433 9.25 14.5C9.25 12.567 10.817 11 12.75 11C14.683 11 16.25 12.567 16.25 14.5Z" stroke="#141B34" stroke-width="1.5"/>
<path d="M12.7498 6.5H12.7588" stroke="#141B34" stroke-width="2" stroke-linecap="round" stroke-linejoin="round"/>
</svg>
