<svg width="32" height="32" viewBox="0 0 32 32" fill="none" xmlns="http://www.w3.org/2000/svg">
<path d="M3.33301 15.9999C3.33301 10.0288 3.33301 7.04323 5.188 5.18824C7.04299 3.33325 10.0286 3.33325 15.9997 3.33325C21.9708 3.33325 24.9564 3.33325 26.8114 5.18824C28.6663 7.04323 28.6663 10.0288 28.6663 15.9999C28.6663 21.971 28.6663 24.9566 26.8114 26.8116C24.9564 28.6666 21.9708 28.6666 15.9997 28.6666C10.0286 28.6666 7.04299 28.6666 5.188 26.8116C3.33301 24.9566 3.33301 21.971 3.33301 15.9999Z" stroke="#3071F1" stroke-width="2" stroke-linejoin="round"/>
<path d="M9.33301 22.6666L9.33301 17.3333" stroke="#3071F1" stroke-width="2" stroke-linecap="round"/>
<path d="M16 22.6666L16 9.33325" stroke="#3071F1" stroke-width="2" stroke-linecap="round"/>
<path d="M22.666 22.6665L22.666 14.6665" stroke="#3071F1" stroke-width="2" stroke-linecap="round"/>
</svg>
